<svg width="24" height="24" viewBox="0 0 24 24" fill="none" xmlns="http://www.w3.org/2000/svg">
<path d="M12 15C11.8684 15.0008 11.7379 14.9755 11.6161 14.9258C11.4942 14.876 11.3834 14.8027 11.29 14.71L7.28998 10.71C7.10168 10.5217 6.99589 10.2663 6.99589 10C6.99589 9.7337 7.10168 9.47831 7.28998 9.29C7.47828 9.1017 7.73368 8.99591 7.99998 8.99591C8.26628 8.99591 8.52168 9.1017 8.70998 9.29L12 12.59L15.29 9.3C15.4813 9.13618 15.7274 9.05057 15.979 9.06029C16.2307 9.07001 16.4694 9.17434 16.6475 9.35244C16.8256 9.53053 16.93 9.76927 16.9397 10.0209C16.9494 10.2726 16.8638 10.5187 16.7 10.71L12.7 14.71C12.5137 14.8947 12.2623 14.9989 12 15Z" fill="#264065"/>
</svg>
